<svg id="icon-voice-lightblue" xmlns="http://www.w3.org/2000/svg" width="100" height="100" viewBox="0 0 100 100">
  <rect id="Rectangle_4666" data-name="Rectangle 4666" width="100" height="100" fill="rgba(255,255,255,0)"/>
  <g id="Group_15055" data-name="Group 15055" transform="translate(-785.827 -303.949)">
    <path id="Union_94" data-name="Union 94" d="M0,60.933V30.8H11.528c0-6.023-.009-25.015,0-25.006C11.483-.444,16.881.007,16.881.007h9.45s5.4-.451,5.353,5.787c.009-.009,0,18.982,0,25.006H42.1V60.933Zm4.093-3.99H38.626V34.608H31.684V48.217s-.177,4.613-5.541,4.613c-.077,0-.154,0-.231,0l-.944-.023v.023s-.389-.027-1.282-.042c-.785-.012-1.479-.016-2.079-.016s-1.294,0-2.083.016c-.894.015-1.278.042-1.278.042v-.02c-.3,0-.612.012-.939.02-5.591.135-5.776-4.609-5.776-4.609V34.608H4.093Zm14.151-8.07h7.667s1.586.08,1.7-2.924,0-39.423,0-39.423-.227-2.456-3.423-2.376h-.1c-.239.008-1.109.038-2.48.035-1.386,0-2.264-.027-2.488-.035H19.03c-3.2-.08-3.423,2.542-3.423,2.542s-.112,36.25,0,39.257,1.7,2.924,1.7,2.924Z" transform="translate(814.827 323.949)" fill="#00629b"/>
    <g id="Group_15054" data-name="Group 15054" transform="translate(832.819 335.026)">
      <ellipse id="Ellipse_4" data-name="Ellipse 4" cx="1.33" cy="1.328" rx="1.33" ry="1.328" transform="translate(1.963 22.554)" fill="#00629b"/>
      <path id="Path_8" data-name="Path 8" d="M609.106,211.356a1.328,1.328,0,1,0,1.33,1.328A1.329,1.329,0,0,0,609.106,211.356Z" transform="translate(-605.813 -184.658)" fill="#00629b"/>
      <ellipse id="Ellipse_5" data-name="Ellipse 5" cx="1.33" cy="1.328" rx="1.33" ry="1.328" transform="translate(1.963 30.844)" fill="#00629b"/>
      <path id="Path_9" data-name="Path 9" d="M603.033,154.241h5.634v-2.3h-5.634Z" transform="translate(-602.083 -151.936)" fill="#00629b"/>
    </g>
  </g>
</svg>
