<svg width="120" height="44" viewBox="0 0 120 44" fill="none" xmlns="http://www.w3.org/2000/svg">
<path fill-rule="evenodd" clip-rule="evenodd" d="M108.9 28.6151L116.48 22.8472L108.9 17.0991V28.6151Z" fill="#0099D8"/>
<path fill-rule="evenodd" clip-rule="evenodd" d="M28.0504 21.8386C28.0504 20.4873 27.789 19.4386 27.2662 18.7125C26.7434 17.9865 25.9995 17.6235 25.0343 17.6235C24.0893 17.6235 23.3655 17.9865 22.8427 18.7125C22.3601 19.3781 22.1189 20.4268 22.1189 21.8386C22.1189 23.1697 22.3803 24.1579 22.903 24.8235C23.4258 25.5493 24.1698 25.9125 25.1349 25.9125C26.0397 25.9125 26.7434 25.5493 27.2662 24.8235C27.789 24.0772 28.0504 23.089 28.0504 21.8386ZM22.1189 32.0638C22.1189 32.5478 21.9379 32.9714 21.5961 33.314C21.2543 33.6571 20.832 33.8386 20.3495 33.8386H18.5801V20.8302C18.5801 18.3898 19.2838 16.7361 20.7114 15.8487C22.139 14.9613 23.6872 14.5176 25.3561 14.5176C26.2206 14.5176 27.1053 14.6789 27.99 15.0218C28.8747 15.3445 29.5785 15.8285 30.1013 16.4537C31.1468 17.805 31.6696 19.5596 31.6696 21.6772C31.6696 23.8756 31.1468 25.6501 30.1013 27.0016C29.0557 28.3327 27.7287 28.9779 26.1 28.9779C24.7931 28.9779 24.0089 28.8369 23.3052 28.5949C22.8025 28.4134 22.4205 28.272 22.139 28.1712L22.1189 32.0638Z" fill="white"/>
<path fill-rule="evenodd" clip-rule="evenodd" d="M98.967 28.615H95.3679V20.4671V19.741C95.3679 18.9141 95.1065 18.2889 94.6038 17.9057C94.1011 17.5225 93.5382 17.341 92.9148 17.341C92.2915 17.341 91.7285 17.5427 91.246 17.9057C90.7634 18.2889 90.5221 18.894 90.5221 19.741V28.615H86.8828V20.4671C86.8828 18.1074 87.5061 16.5141 88.7326 15.7074C89.9591 14.9007 91.3264 14.4772 92.8143 14.3965C93.6186 14.3965 94.4027 14.4772 95.1668 14.6587C95.9309 14.8402 96.6346 15.183 97.2579 15.7074C97.7807 15.2637 98.404 14.941 99.1077 14.7393C99.8115 14.5578 100.555 14.4368 101.319 14.3965C102.848 14.3965 104.516 14.457 106.306 15.6066C107.593 16.4133 107.693 17.1192 107.693 17.1192V28.615H105.642C105.12 28.615 104.697 28.4536 104.376 28.1108C104.054 27.7881 103.873 27.3444 103.873 26.8402V19.741C103.873 18.9141 103.612 18.2889 103.109 17.9057C102.606 17.5225 102.043 17.341 101.42 17.341C100.797 17.341 100.234 17.5427 99.731 17.9057C99.2284 18.2889 98.967 18.894 98.967 19.741V20.4671V28.615Z" fill="white"/>
<path fill-rule="evenodd" clip-rule="evenodd" d="M5.55089 27.4857C6.71708 28.4941 8.48648 28.9983 10.839 28.9983C13.111 28.9983 14.8804 28.5143 16.127 27.5462C17.3737 26.4975 17.997 25.0452 17.997 23.1899C17.997 22.3225 17.8361 21.5159 17.434 20.7899C17.0721 20.1243 16.4488 19.4991 15.6847 19.1159C15.2021 18.8739 14.9206 18.7731 14.3174 18.5916C13.9555 18.4706 13.674 18.3899 13.2518 18.2689C12.7692 18.1479 12.3269 18.0067 11.6231 17.805C11.3215 17.7243 10.7988 17.6033 10.2157 17.442C8.20498 16.9983 7.32028 16.3126 7.32028 15.3849C7.32028 14.6991 7.58167 14.1546 8.10445 13.7714C8.5468 13.3882 9.29075 13.2067 10.3363 13.2067C11.402 13.2067 12.2464 13.4286 12.8698 13.8924C13.1714 14.1344 13.4126 14.437 13.5936 14.7798C13.9354 15.5059 13.855 15.8689 13.855 15.8689H17.3737C17.3133 14.1344 16.69 12.7428 15.5037 11.6538C14.3577 10.6857 12.7491 10.2017 10.6379 10.2017C8.38594 10.2017 6.67687 10.6655 5.51068 11.6134C4.34448 12.5815 3.74128 13.9126 3.74128 15.6067C3.74128 16.5748 3.92224 17.3613 4.26406 18.0067C4.60587 18.6722 5.02811 19.2571 5.71174 19.6605C6.27473 20.0033 7.56157 20.5277 9.23043 20.8504L9.47171 20.9109L9.77331 20.9916C12.8899 21.6773 14.418 22.5445 14.418 23.7143C14.418 24.4401 14.1365 25.005 13.5936 25.368C13.0909 25.7109 12.2263 25.9328 11.1607 25.9328C9.95427 25.9328 9.00925 25.6907 8.30552 25.2067C7.64199 24.7832 7.25996 24.0571 7.11922 23.0283H3.5C3.58043 24.9849 4.28416 26.4773 5.55089 27.4857ZM40.9187 25.126C40.6975 25.3277 40.4763 25.4891 40.3758 25.5494C39.9536 25.7714 39.089 25.8117 38.5059 25.8117C37.6011 25.8117 36.9375 25.5294 36.4751 24.9849C35.9925 24.4605 35.7311 23.6739 35.6909 22.5849H44.6585C44.6988 22.5241 44.7189 22.4033 44.7189 22.2216V22.0199V21.6571C44.7189 19.3781 44.1559 17.5832 43.0701 16.3126C41.924 15.0622 40.3155 14.437 38.2445 14.437C36.274 14.437 34.7459 15.0823 33.64 16.3529C32.5744 17.6033 32.0315 19.3378 32.0315 21.5563C32.0315 23.8756 32.5744 25.6706 33.6802 26.9008C34.7861 28.1916 36.3142 28.8168 38.2847 28.8168C39.9133 28.8168 41.2605 28.4134 42.3262 27.6269C43.3918 26.8603 44.1157 25.751 44.4977 24.2991H41.3811C41.2002 24.8638 40.9991 25.0452 40.9187 25.126ZM36.4952 18.168C36.9778 17.684 37.6011 17.442 38.3651 17.442C39.1895 17.442 39.8329 17.684 40.2753 18.168C40.6975 18.6117 40.9388 19.3176 40.9991 20.2454H35.711C35.7512 19.358 36.0126 18.6722 36.4952 18.168ZM53.3045 25.5697C52.8822 25.8117 52.3192 25.8319 51.7361 25.8319C50.8313 25.8319 50.1678 25.5494 49.7053 25.005C49.082 24.3393 48.7804 23.23 48.7804 21.6166C48.7804 20.0235 49.082 18.8739 49.7053 18.1882C50.1879 17.7042 50.8112 17.4622 51.5753 17.4622C52.3996 17.4622 53.0431 17.7042 53.4854 18.1882C53.6664 18.3697 53.8272 18.6117 54.0082 18.9748H57.6274C57.3459 17.9664 56.9438 17.0386 56.2803 16.3328C55.1141 15.1025 53.5256 14.4571 51.4546 14.4571C49.4842 14.4571 47.9561 15.1025 46.8502 16.3731C45.7845 17.6235 45.2416 19.358 45.2416 21.5764C45.2416 23.8958 45.7845 25.6907 46.8904 26.921C47.9963 28.2117 49.5244 28.837 51.4948 28.837C53.1235 28.837 54.4706 28.4336 55.5363 27.647C56.602 26.8807 57.3258 25.7714 57.7078 24.3193L54.2897 24.3393C54.1891 24.7025 53.968 25.2067 53.3045 25.5697ZM62.5536 24.9849V18.4504H64.6648V14.8H62.5335V12.4605C62.5335 11.9765 62.3525 11.5529 62.0107 11.2101C61.6689 10.8672 61.2667 10.6857 60.8244 10.6857H58.9544V25.9731C58.9544 27.5662 59.618 28.4134 60.945 28.5143C60.945 28.5143 62.4128 28.5949 62.5335 28.5949L62.5536 24.9849ZM68.4851 28.5746V21.4554C68.4851 20.4067 68.7263 19.6605 69.2089 19.1765C69.6915 18.6924 70.4354 18.4504 71.4407 18.4504H72.627V14.7395H72.3657H72.1043C71.1794 14.7395 70.2746 14.8605 69.3899 15.1025C68.5052 15.3445 67.7411 15.7277 67.0776 16.2521C66.394 16.8168 65.8511 17.5428 65.4489 18.4706C65.0468 19.3983 64.8457 20.5277 64.8457 21.879V28.5746H68.4851ZM83.8667 14.7395C83.3439 14.7395 82.9217 14.921 82.6 15.2638C82.2783 15.6067 82.1174 16.0302 82.1174 16.5143V23.5731C82.1174 24.4 81.8762 25.005 81.3735 25.3882C80.8708 25.7714 80.3078 25.9527 79.6845 25.9527C79.0612 25.9527 78.5183 25.7714 78.0358 25.3882C77.5532 25.005 77.3119 24.4 77.3119 23.5731V14.7395H73.6927V22.847C73.6927 25.2468 74.2959 26.8201 75.5224 27.5865C76.7489 28.3529 78.0961 28.7563 79.584 28.837C81.1121 28.837 82.4995 28.4538 83.7863 27.6874C85.0731 26.921 85.6964 25.3075 85.6964 22.847V14.7395H83.8667Z" fill="white"/>
</svg>
