<svg id="icon-tv-mediumblue" xmlns="http://www.w3.org/2000/svg" width="100" height="100" viewBox="0 0 100 100">
  <rect id="Rectangle_4666" data-name="Rectangle 4666" width="100" height="100" fill="rgba(255,255,255,0)"/>
  <g id="Icon-tv" transform="translate(21 21)">
    <path id="Shape" d="M10.179,49H6.107l2.036-6.126H4.071A4.082,4.082,0,0,1,0,38.79V4.083A4.082,4.082,0,0,1,4.071,0H52.929A4.082,4.082,0,0,1,57,4.083V38.79a4.082,4.082,0,0,1-4.071,4.083H48.858L50.893,49l-4.07,0-2.037-6.126H12.215L10.179,49ZM4.071,4.083V38.79H52.929V4.083Z" transform="translate(0 4)" fill="#00629b"/>
  </g>
</svg>
